<svg xmlns="http://www.w3.org/2000/svg" viewBox="0 0 200 200">
  <!-- Circle border -->
  <circle cx="100" cy="100" r="90" fill="none" stroke="#1EC0A0" stroke-width="6"/>

  <!-- Green Leaf -->
  <path d="M100 40 L125 55 Q135 65 130 82 Q125 100 105 110 L100 115 L95 110 Q75 100 70 82 Q65 65 75 55 Z"
        fill="#1EC0A0"/>

  <!-- Navy J with plug shape -->
  <path d="M75 85 L125 85 L125 145 Q125 165 100 165 Q75 165 75 145 L75 137 Q75 120 100 120 Q110 120 110 130 L110 137"
        fill="#1E3A5C" stroke="#1E3A5C" stroke-width="3"/>

  <!-- Plug prongs at bottom -->
  <rect x="82" y="160" width="12" height="20" rx="3" fill="#1E3A5C"/>
  <rect x="106" y="160" width="12" height="20" rx="3" fill="#1E3A5C"/>
</svg>
